<svg height="86.186134pt" preserveAspectRatio="xMidYMid meet" viewBox="0 0 293.81636 86.186134" width="287.76019pt" xmlns="http://www.w3.org/2000/svg"><g transform="matrix(.1 0 0 -.1 -3.045281 90.073979)"><path d="m1577 903c-4-3-7-15-7-25s-3-17-7-17c-27 4-35-3-29-25 4-18 1-25-14-29-13-3-18-11-14-20 3-9-2-17-13-21-66-20-263-66-285-66-25 0-28 4-28 34 0 44-43 98-74 94-16-2-21-10-20-33 0-16 4-39 9-49 8-19 8-19-15-3-33 23-47 21-66-8-21-32-11-60 27-75 27-12 28-14 14-30-8-9-15-25-15-35 0-14 6-16 30-11 27 5 29 3 22-12-19-36-21-98-6-171 17-84 43-142 80-182l25-26-28-46c-15-27-36-47-48-49-11-2-21-12-24-23-3-17-1-18 14-5s19 11 37-13c11-15 24-27 30-27s5 7-3 16c-12 15-11 16 11 9 14-4 31-10 38-12 6-3 12 0 12 6s-15 15-32 20c-33 9-33 9-5 11 15 2 32 4 37 5 6 1 13 3 18 4 4 1 1 5-7 10-7 5-29 5-48 1-19-5-33-5-31-2 2 4 11 25 22 48 19 41 19 41 48 27 16-8 59-15 96-16 57-1 79 5 148 36 64 29 94 37 140 37 45 0 55-3 46-12-22-22-12-32 11-11 12 11 36 25 52 31 27 9 28 11 6 11l-23 1 23 20c26 21 19 26-12 10-23-13-25-7-3 15 9 9 13 19 9 23s-13-2-21-13c-32-48-40-53-90-57l-52-5 38 49c52 65 80 145 87 247 5 72 10 88 33 115 37 42 86 125 94 159s-10 36-91 7c-32-11-58-20-59-20 0 0-1 14-2 31-1 42-27 79-56 79-12 0-26-3-29-7zm67-59c4-20 5-38 3-40-9-9-58 68-53 82 10 26 43-2 50-42zm-44-24c12-16 19-30 15-30-18 0-65 33-65 45 0 25 27 17 50-15zm190-25c-14-37-89-145-100-145-6 0-10 21-10 48 0 26-3 56-6 68-5 18 1 23 48 37 76 22 79 22 68-8zm-646-11c11-15 16-40 14-62l-3-37-23 32c-29 41-40 93-19 93 8 0 22-11 31-26zm421 6c3-5-3-10-14-10-12 0-21 5-21 10 0 6 6 10 14 10s18-4 21-10zm92-57c4-27 8-100 8-163 0-105-3-120-28-175-38-82-71-121-131-160-150-96-301-72-367 57-26 51-49 172-42 223 2 22 20 68 39 101 33 60 35 62 81 67 50 6 103 18 268 60 55 14 111 28 125 30s28 5 32 6c4 0 10-20 15-46zm-559-24c23-17 42-34 42-38 0-13-51-11-85 4-36 14-40 21-29 49 9 23 25 20 72-15zm17-86c-41-30-55-35-55-18 0 9 15 22 33 30 38 16 50 10 22-12z"/><path d="m1573 728c-17-21-21-42-11-60 21-42 86-1 74 47-7 27-45 35-63 13zm40-50c-6-11-43-10-43 1 0 5 3 16 6 24 5 14 8 13 23-1 10-9 16-20 14-24z"/><path d="m1424 636c-4-10-2-22 4-28 8-8 13-7 18 6 4 10 2 22-4 28-8 8-13 7-18-6z"/><path d="m1271 529-20-32-12 26c-14 31-25 34-31 10-8-37 4-283 14-283 7 0 9 45 6 133-3 95-1 124 6 105 13-37 32-35 41 5 7 26 10 16 16-58 4-49 9-111 10-137 2-34 6-48 17-48 10 0 12 7 8 23-3 12-9 80-13 150-3 70-10 130-14 133-5 3-18-10-28-27z"/><path d="m1427 453c4-135 11-191 25-199 8-5 9 5 5 32-4 21-7 92-7 157 0 88-3 117-13 117-9 0-12-25-10-107z"/><path d="m2075 811c-8-15 3-31 21-31 9 0 14 7 12 17-4 20-24 28-33 14z"/><path d="m2839 712-26-3-6-136c-4-75-7-194-7-265v-128h85c104 0 114 18 13 22l-73 3-1 150c0 83 1 171 4 197l4 46 59 7c32 4 57 11 54 15-3 5-30 6-60 3l-55-6v31c0 38 6 42 75 49 30 3 55 10 55 15 0 8-55 8-121 0z"/><path d="m2080 444c0-185 3-265 11-262 6 2 10 7 10 11-1 4-1 122-1 262 0 163-4 255-10 255s-10-95-10-266z"/><path d="m2291 670c-67-93-119-268-109-372 11-108 111-168 177-107 24 22 19 29 52-64 7-20 16-37 19-37 16 0 16 14 1 48-39 84-39 84-17 132 18 39 21 64 21 180-1 120-3 141-24 188-38 84-75 94-120 32zm72 8c49-37 74-263 42-374-15-51-18-56-26-36-5 12-13 22-19 22-13 0-13-3 2-36 11-23 10-28-11-45-72-59-151 13-151 137 0 91 62 263 118 327 18 20 23 21 45 5z"/><path d="m2586 693c-7-27-24-185-31-295-9-125 10-200 56-223 28-15 33-15 62 2 21 12 37 33 46 59 31 86 11 483-23 471-6-3-9-11-7-18 26-99 34-379 12-442-14-42-42-61-77-53-18 5-27 18-39 61-14 48-15 74-5 198 6 78 15 162 20 187s9 51 10 58c0 18-18 14-24-5z"/><path d="m195 684c-90-33-155-143-163-275-4-64-1-82 18-120 29-57 47-77 90-99 51-26 160-31 160-7 0 8-16 11-57 9-51-3-64 1-106 28-61 39-86 91-87 177 0 70 24 143 65 204 29 41 106 84 137 76 23-6 34 9 12 17-20 8-21 7-69-10z"/><path d="m375 687c-3-7-4-127-3-267l3-255 40-5c47-6 85-1 85 11 0 5-25 9-55 9h-55l-1 118c-2 143 1 276 7 281 2 2 20 7 40 10 48 8 40 27-8 23-37-4-38-3-38 32v36l45-7c28-3 45-2 45 4 0 23-97 32-105 10z"/><path d="m579 695c-1-3-1-16-1-30 0-366 3-495 13-495 7 0 10 37 8 112-4 191 0 290 12 286 6-2 34-95 62-206 30-121 55-201 61-198 6 2 9 10 7 17-31 103-74 267-83 316-11 62-11 63 15 83 15 12 27 30 27 41 0 32-53 79-89 79-17 0-31-2-32-5zm73-27c41-33 17-99-30-84-19 6-33 57-24 85 5 15 34 14 54-1z"/><path d="m829 668c0-18-2-42-4-53s-8-76-14-145c-13-147-28-260-36-282-7-17 10-34 19-20 3 4 13 90 23 190 14 148 20 182 34 185 13 4 19-14 33-97 47-271 51-290 65-282 4 3-3 56-15 118s-34 182-49 266c-20 105-33 152-42 152-8 0-13-13-14-32zm30-85c1-13-3-23-9-23-5 0-10 19-9 43 0 32 2 37 9 22 5-11 9-30 9-42z"/><path d="m1858 693c-9-19 4-514 14-511 11 4 12 215 3 388l-5 95 19-40c11-22 20-46 20-52 2-27 28-11 48 30l22 42 1-140c1-187 10-318 22-330 7-7 9 22 4 90-3 55-6 175-6 268 0 138-2 167-14 167-8 0-18-14-22-32-3-18-14-43-22-56-15-23-15-23-38 29-21 51-38 69-46 52z"/></g></svg>