<svg height="86.186142pt" preserveAspectRatio="xMidYMid meet" viewBox="0 0 81.251857 86.186142" width="79.577087pt" xmlns="http://www.w3.org/2000/svg"><g transform="matrix(.1 0 0 -.1 -100.32111 90.093068)"><path d="m1577 903c-4-3-7-15-7-25s-3-17-7-17c-27 4-35-3-29-25 4-18 1-25-14-29-13-3-18-11-14-20 3-9-2-17-13-21-66-20-263-66-285-66-25 0-28 4-28 34 0 44-43 98-74 94-16-2-21-10-20-33 0-16 4-39 9-49 8-19 8-19-15-3-33 23-47 21-66-8-21-32-11-60 27-75 27-12 28-14 14-30-8-9-15-25-15-35 0-14 6-16 30-11 27 5 29 3 22-12-19-36-21-98-6-171 17-84 43-142 80-182l25-26-28-46c-15-27-36-47-48-49-11-2-21-12-24-23-3-17-1-18 14-5s19 11 37-13c11-15 24-27 30-27s5 7-3 16c-12 15-11 16 11 9 14-4 31-10 38-12 6-3 12 0 12 6s-15 15-32 20c-33 9-33 9-5 11 15 2 32 4 37 5 6 1 13 3 18 4 4 1 1 5-7 10-7 5-29 5-48 1-19-5-33-5-31-2 2 4 11 25 22 48 19 41 19 41 48 27 16-8 59-15 96-16 57-1 79 5 148 36 64 29 94 37 140 37 45 0 55-3 46-12-22-22-12-32 11-11 12 11 36 25 52 31 27 9 28 11 6 11l-23 1 23 20c26 21 19 26-12 10-23-13-25-7-3 15 9 9 13 19 9 23s-13-2-21-13c-32-48-40-53-90-57l-52-5 38 49c52 65 80 145 87 247 5 72 10 88 33 115 37 42 86 125 94 159s-10 36-91 7c-32-11-58-20-59-20 0 0-1 14-2 31-1 42-27 79-56 79-12 0-26-3-29-7zm67-59c4-20 5-38 3-40-9-9-58 68-53 82 10 26 43-2 50-42zm-44-24c12-16 19-30 15-30-18 0-65 33-65 45 0 25 27 17 50-15zm190-25c-14-37-89-145-100-145-6 0-10 21-10 48 0 26-3 56-6 68-5 18 1 23 48 37 76 22 79 22 68-8zm-646-11c11-15 16-40 14-62l-3-37-23 32c-29 41-40 93-19 93 8 0 22-11 31-26zm421 6c3-5-3-10-14-10-12 0-21 5-21 10 0 6 6 10 14 10s18-4 21-10zm92-57c4-27 8-100 8-163 0-105-3-120-28-175-38-82-71-121-131-160-150-96-301-72-367 57-26 51-49 172-42 223 2 22 20 68 39 101 33 60 35 62 81 67 50 6 103 18 268 60 55 14 111 28 125 30s28 5 32 6c4 0 10-20 15-46zm-559-24c23-17 42-34 42-38 0-13-51-11-85 4-36 14-40 21-29 49 9 23 25 20 72-15zm17-86c-41-30-55-35-55-18 0 9 15 22 33 30 38 16 50 10 22-12z"/><path d="m1573 728c-17-21-21-42-11-60 21-42 86-1 74 47-7 27-45 35-63 13zm40-50c-6-11-43-10-43 1 0 5 3 16 6 24 5 14 8 13 23-1 10-9 16-20 14-24z"/></g></svg>